<svg xmlns="http://www.w3.org/2000/svg" version="1.1" xmlns:xlink="http://www.w3.org/1999/xlink" xmlns:svgjs="http://svgjs.dev/svgjs" viewBox="0 0 800 800"><defs><linearGradient x1="50%" y1="0%" x2="50%" y2="100%" id="nnneon-grad"><stop stop-color="hsl(37, 99%, 67%)" stop-opacity="1" offset="0%"></stop><stop stop-color="hsl(316, 73%, 52%)" stop-opacity="1" offset="100%"></stop></linearGradient><filter id="nnneon-filter" x="-100%" y="-100%" width="400%" height="400%" filterUnits="objectBoundingBox" primitiveUnits="userSpaceOnUse" color-interpolation-filters="sRGB">
	<feGaussianBlur stdDeviation="8 9" x="0%" y="0%" width="100%" height="100%" in="SourceGraphic" edgeMode="none" result="blur"></feGaussianBlur></filter><filter id="nnneon-filter2" x="-100%" y="-100%" width="400%" height="400%" filterUnits="objectBoundingBox" primitiveUnits="userSpaceOnUse" color-interpolation-filters="sRGB">
	<feGaussianBlur stdDeviation="17 17" x="0%" y="0%" width="100%" height="100%" in="SourceGraphic" edgeMode="none" result="blur"></feGaussianBlur></filter></defs><g stroke-width="44" stroke="url(#nnneon-grad)" fill="none" transform="rotate(37, 400, 400)"><path d="M382.0103048381402 160.32740449766504C389.3803997876579 145.4346745070821 410.6196004292143 145.4346745070821 417.989695378732 160.32740449766504L646.3923900874071 621.8695651788665C652.9937632597827 635.2087947634237 643.2873963818232 650.8421470406004 628.404701923579 650.8421470406004H171.59529829329324C156.71260383504887 650.8421470406004 147.00623695708953 635.2087947634237 153.60761012946517 621.8695651788665L382.0103048381402 160.32740449766504Z " filter="url(#nnneon-filter)"></path><path d="M382.0103048381402 160.32740449766504C389.3803997876579 145.4346745070821 410.6196004292143 145.4346745070821 417.989695378732 160.32740449766504L646.3923900874071 621.8695651788665C652.9937632597827 635.2087947634237 643.2873963818232 650.8421470406004 628.404701923579 650.8421470406004H171.59529829329324C156.71260383504887 650.8421470406004 147.00623695708953 635.2087947634237 153.60761012946517 621.8695651788665L382.0103048381402 160.32740449766504Z " filter="url(#nnneon-filter2)" opacity="0.78"></path><path d="M382.0103048381402 160.32740449766504C389.3803997876579 145.4346745070821 410.6196004292143 145.4346745070821 417.989695378732 160.32740449766504L646.3923900874071 621.8695651788665C652.9937632597827 635.2087947634237 643.2873963818232 650.8421470406004 628.404701923579 650.8421470406004H171.59529829329324C156.71260383504887 650.8421470406004 147.00623695708953 635.2087947634237 153.60761012946517 621.8695651788665L382.0103048381402 160.32740449766504Z " filter="url(#nnneon-filter2)" opacity="0.78"></path><path d="M382.0103048381402 160.32740449766504C389.3803997876579 145.4346745070821 410.6196004292143 145.4346745070821 417.989695378732 160.32740449766504L646.3923900874071 621.8695651788665C652.9937632597827 635.2087947634237 643.2873963818232 650.8421470406004 628.404701923579 650.8421470406004H171.59529829329324C156.71260383504887 650.8421470406004 147.00623695708953 635.2087947634237 153.60761012946517 621.8695651788665L382.0103048381402 160.32740449766504Z "></path></g></svg>